<?xml version="1.0" encoding="UTF-8"?>
<svg id="_레이어_2" data-name="레이어 2" xmlns="http://www.w3.org/2000/svg" xmlns:xlink="http://www.w3.org/1999/xlink" viewBox="0 0 98.37 92.1">
  <defs>
    <style>
      .cls-1 {
        fill: url(#_무제_그라디언트_29-3);
      }

      .cls-2 {
        fill: url(#_무제_그라디언트_29);
      }

      .cls-3 {
        fill: url(#_무제_그라디언트_29-4);
      }

      .cls-4 {
        fill: url(#_무제_그라디언트_29-2);
      }
    </style>
    <radialGradient id="_무제_그라디언트_29" data-name="무제 그라디언트 29" cx="49.19" cy="46.04" fx="49.19" fy="46.04" r="81.8" gradientUnits="userSpaceOnUse">
      <stop offset="0" stop-color="#93c4fd"/>
      <stop offset=".22" stop-color="#8bb4fa"/>
      <stop offset=".65" stop-color="#768bf5"/>
      <stop offset=".99" stop-color="#6467f1"/>
    </radialGradient>
    <radialGradient id="_무제_그라디언트_29-2" data-name="무제 그라디언트 29" cx="49.19" cy="46.04" fx="49.19" fy="46.04" r="80.08" xlink:href="#_무제_그라디언트_29"/>
    <radialGradient id="_무제_그라디언트_29-3" data-name="무제 그라디언트 29" cx="68.78" cy="78.16" fx="68.78" fy="78.16" r="31.89" xlink:href="#_무제_그라디언트_29"/>
    <radialGradient id="_무제_그라디언트_29-4" data-name="무제 그라디언트 29" cx="68.78" cy="78.16" fx="68.78" fy="78.16" r="29.85" xlink:href="#_무제_그라디언트_29"/>
  </defs>
  <g id="_레이어_1-2" data-name="레이어 1">
    <g>
      <path class="cls-2" d="M26.04,92.08c-.33,0-.66,0-1-.02C8.21,91.44-.29,74.85,0,58.78c.29-15.62,9.09-32.43,27.74-32.43.94,0,1.92.04,2.89.13,10.17.91,17.21,9.34,20.41,16.93.12.29.1.63-.06.9l-6.03,10.14c-.15.25-.39.42-.68.47-.24.04-.41.06-.53.06-.28,0-.96-.09-1.2-.92-.46-.84-.82-1.87-1.18-2.86-.27-.77-.56-1.57-.86-2.2-2.44-5.09-5.56-10.57-11.87-11.09-.41-.03-.82-.05-1.21-.05-5.74,0-9.14,3.6-10.97,6.62-2.38,3.92-3.7,9.26-3.7,15.04,0,10.45,4.45,21.03,12.96,21.03.85,0,1.74-.11,2.65-.32,6.53-1.51,11.54-11.54,15.2-18.86,1.05-2.1,2.04-4.09,2.97-5.68,4.62-7.97,10.67-15.15,16.53-22.1,3.96-4.69,8.04-9.54,11.61-14.55l-7.46-6.15c-.28-.23-.41-.58-.35-.94.06-.35.3-.65.63-.77L97.02.06c.11-.04.23-.06.35-.06.22,0,.45.08.63.22.28.22.41.57.36.92l-4.41,30.74c-.02.17-.09.32-.19.46-.12.16-.49.65-1.11.65-.57,0-.88-.4-1.01-.57-1.32-1-2.58-2.06-3.79-3.08-1.13-.96-2.29-1.94-3.47-2.82l-24.4,30.51c-2.16,3.13-4.1,6.82-6.15,10.72-6.01,11.41-12.82,24.33-27.79,24.33Z"/>
      <path class="cls-4" d="M67.85,12.11l8.18,6.74c-8.91,12.74-20.78,23.78-28.63,37.33-4.24,7.32-9.92,22.96-18.81,25.02-21.54,4.99-23.38-46.24.13-44.28,6.76.56,10.07,6.18,12.69,11.66.72,1.51,1.26,3.63,2.01,4.99.19.34-.02.52.67.39l6.03-10.14c-3.42-8.12-10.33-15.5-19.57-16.33-38.1-3.39-38.75,62.35-5.47,63.59,19.94.74,25.02-21.48,34.12-34.66l24.62-30.78.62-.3c2.66,1.89,5.1,4.28,7.77,6.24.32.24.35.71.76.16l4.41-30.74-29.52,11.11Z"/>
      <path class="cls-1" d="M69.7,92.1c-1.63,0-3.31-.23-4.99-.7-5.48-1.51-9.71-6.14-12.94-14.16-.11-.26-.1-.56.03-.81l5.72-11.67c.17-.34.52-.56.9-.56.03,0,.06,0,.09,0,1.06.09,1.31.99,1.39,1.28.01.04.02.08.03.11.34.81.71,1.82,1.13,2.99,1.52,4.21,3.82,10.56,6.89,11.56.62.2,1.21.3,1.76.3,4.21,0,5.23-6.22,5.39-7.46.04-.29.2-.55.45-.71.16-.1.35-.16.54-.16.1,0,.2.02.3.05l8.8,2.77c.45.14.73.57.7,1.03-.77,9.5-7.42,16.14-16.17,16.14Z"/>
      <path class="cls-3" d="M67.63,81.1c-4.41-1.43-6.95-11.15-8.63-15.11-.13-.31-.1-.74-.58-.78l-5.72,11.67c2.31,5.74,5.93,11.82,12.28,13.57,10.53,2.9,19.05-4.06,19.9-14.56l-8.8-2.77c-.58,4.45-2.97,9.76-8.45,7.98Z"/>
    </g>
  </g>
</svg>